<?xml version="1.0" encoding="iso-8859-1"?>
<!-- Generator: Adobe Illustrator 19.0.0, SVG Export Plug-In . SVG Version: 6.00 Build 0)  -->
<svg version="1.1" id="Capa_1" xmlns="http://www.w3.org/2000/svg" xmlns:xlink="http://www.w3.org/1999/xlink" x="0px" y="0px"
	 viewBox="0 0 511.999 511.999" style="enable-background:new 0 0 511.999 511.999;" xml:space="preserve">
<g>
	<g>
		<path d="M511.691,275.688c-8.914-30.381-24.793-59.021-45.917-82.823c-20.992-23.651-47.362-42.761-76.26-55.265
			c-3.144-1.36-6.805-0.451-8.949,2.218c-20.788,25.894-32.93,57.982-34.639,91.129c-11.442-0.698-22.454-1.138-33.028-1.351
			l-17.007-81.761c-0.856-4.111-4.885-6.755-8.993-5.896c-4.112,0.856-6.751,4.882-5.896,8.993l16.33,78.507
			c-12.432,0.004-24.209,0.32-35.341,0.883l-16.853-68.56c-1.003-4.078-5.119-6.57-9.2-5.569c-4.078,1.003-6.571,5.121-5.569,9.2
			l16.198,65.895c-14.453,1.077-27.692,2.558-39.703,4.288l-12.428-49.517c-1.022-4.074-5.153-6.545-9.226-5.524
			c-4.074,1.022-6.546,5.153-5.525,9.226l12.1,48.21c-12.692,2.214-23.758,4.656-33.189,7.067c-0.314,0.08-0.615,0.161-0.927,0.242
			l-9.963-33.195c-1.206-4.023-5.446-6.304-9.468-5.098c-4.022,1.207-6.304,5.446-5.098,9.468l9.88,32.918
			c-16.658,5.032-28.723,10.028-36.467,13.671c-2.444-14.52-9.292-27.902-19.914-38.525c-2.97-2.97-7.784-2.97-10.753,0
			c-2.97,2.97-2.97,7.783,0,10.753c8.813,8.813,14.343,20.036,15.973,32.183H71.474c-28.446,0-52.03-21.221-55.754-48.662h20.378
			c6.943,0,13.718,1.247,20.136,3.708c3.923,1.506,8.319-0.457,9.822-4.378c1.504-3.922-0.457-8.319-4.378-9.822
			c-8.162-3.129-16.769-4.715-25.579-4.715H7.604c-4.199,0-7.604,3.404-7.604,7.604c0,34.707,24.871,63.703,57.724,70.133
			c-17.709,13.021-29.229,33.989-29.229,57.606v28.493c0,4.199,3.404,7.604,7.604,7.604c39.411,0,71.474-32.063,71.474-71.474
			V279.52c5.554-2.908,17.705-8.652,36.961-14.658l-1.572,44.44c-0.148,4.197,3.133,7.719,7.33,7.867
			c0.091,0.003,0.182,0.005,0.274,0.005c4.076,0,7.449-3.23,7.594-7.335l1.746-49.383c9.784-2.57,20.904-5.07,33.401-7.298
			l-1.682,62.289c-0.114,4.198,3.198,7.693,7.395,7.807c0.07,0.002,0.14,0.003,0.21,0.003c4.104,0,7.485-3.271,7.597-7.398
			l1.76-65.175c11.996-1.75,25.083-3.222,39.281-4.277l-5.533,74.769c-0.31,4.187,2.834,7.834,7.022,8.144
			c0.191,0.014,0.381,0.021,0.57,0.021c3.945,0,7.279-3.046,7.576-7.043l5.685-76.833c11.157-0.556,22.931-0.853,35.347-0.831
			l-5.509,78.599c-0.294,4.189,2.864,7.823,7.053,8.117c0.181,0.013,0.36,0.019,0.539,0.019c3.957,0,7.296-3.064,7.578-7.073
			l5.571-79.482c10.296,0.228,21.002,0.675,32.115,1.366c0.607,13.697,2.947,27.192,7.011,40.206
			c1.251,4.009,5.514,6.245,9.525,4.992c4.009-1.251,6.243-5.515,4.992-9.525c-4.309-13.801-6.494-28.203-6.494-42.807
			c0-31.048,9.638-60.335,27.933-85.07c24.765,11.609,47.335,28.457,65.552,48.981c18.329,20.652,32.412,45.219,40.948,71.356
			c-33.697,19.327-71.48,33.115-112.474,41.044c-1.646-2.617-3.213-5.292-4.68-7.996c-2.003-3.691-6.618-5.06-10.31-3.057
			c-3.691,2.003-5.059,6.618-3.057,10.31c2.49,4.589,5.239,9.103,8.169,13.419c1.431,2.109,3.8,3.335,6.29,3.335
			c0.448,0,0.902-0.041,1.354-0.122c46.819-8.466,89.769-24.243,127.657-46.894C511.271,282.577,512.667,279.012,511.691,275.688z
			 M92.364,303.552c0,28.446-21.221,52.029-48.662,55.754v-20.378c0-28.446,21.221-52.029,48.662-55.754V303.552z"/>
	</g>
</g>
<g>
	<g>
		<path d="M432.29,231.23l7.528-7.528c2.97-2.97,2.97-7.784-0.001-10.753c-2.969-2.971-7.783-2.97-10.753,0l-7.527,7.527
			l-7.527-7.527c-2.97-2.97-7.784-2.97-10.753,0c-2.971,2.97-2.971,7.783-0.001,10.753l7.528,7.528l-7.528,7.528
			c-2.972,2.969-2.972,7.783-0.001,10.753c1.484,1.485,3.431,2.227,5.377,2.227c1.946,0,3.892-0.742,5.377-2.227l7.527-7.527
			l7.527,7.527c1.485,1.485,3.431,2.227,5.377,2.227c1.946,0,3.892-0.742,5.377-2.227c2.971-2.97,2.971-7.783,0.001-10.753
			L432.29,231.23z"/>
	</g>
</g>
<g>
</g>
<g>
</g>
<g>
</g>
<g>
</g>
<g>
</g>
<g>
</g>
<g>
</g>
<g>
</g>
<g>
</g>
<g>
</g>
<g>
</g>
<g>
</g>
<g>
</g>
<g>
</g>
<g>
</g>
</svg>
